# xmcd
#
# Track frame offsets: 
#        150
#        16169
#        38310
#        56029
#        76608
#        96960
#        112509
#        136969
#
# Disc length: 2114 seconds
#
# Revision: 4
# Processed by: cddbd v1.5.2PL0 Copyright (c) Steve Scherf et al.
# Submitted via: ExactAudioCopyFreeDBPlugin 1.0
#
DISCID=4b084008
DTITLE=The Jones Girls - The Jones Girls
DYEAR=1979
DGENRE=Soul
TTITLE0=This Feeling's Killing Me
TTITLE1=You Made Me Love You
TTITLE2=Show Love Today
TTITLE3=You Gonna Make Me Love Somebody Else
TTITLE4=Life Goes On
TTITLE5=Who Can I Run To
TTITLE6=We're a Melody
TTITLE7=I'm at Your Mercy
EXTD=
EXTT0=
EXTT1=
EXTT2=
EXTT3=
EXTT4=
EXTT5=
EXTT6=
EXTT7=
PLAYORDER=
